<svg width="231" height="57" viewBox="0 0 231 57" fill="none" xmlns="http://www.w3.org/2000/svg">
<rect x="121" y="5" width="80.4865" height="46" rx="10" stroke="#FF6969" stroke-width="8"/>
<rect x="129.095" y="13.5122" width="5.09275" height="5.26829" fill="#FF6969"/>
<rect x="129.095" y="13.5122" width="5.09275" height="5.26829" fill="#FF6969"/>
<rect x="129.095" y="25.3658" width="5.09275" height="5.26829" fill="#FF6969"/>
<rect x="129.095" y="37.2195" width="5.09275" height="5.26829" fill="#FF6969"/>
<rect x="140.554" y="13.5122" width="5.09275" height="5.26829" fill="#FF6969"/>
<rect x="140.684" y="37" width="17.0526" height="5.68421" fill="#FF6969"/>
<rect x="164.368" y="37" width="17.0526" height="5.68421" fill="#FF6969"/>
<rect x="152.649" y="13.5122" width="5.09275" height="5.26829" fill="#FF6969"/>
<rect x="152.649" y="25.3658" width="5.09275" height="5.26829" fill="#FF6969"/>
<rect x="164.745" y="13.5122" width="5.09275" height="5.26829" fill="#FF6969"/>
<rect x="164.745" y="25.3658" width="5.09275" height="5.26829" fill="#FF6969"/>
<rect x="176.84" y="13.5122" width="5.09275" height="5.26829" fill="#FF6969"/>
<rect x="188.298" y="13.5122" width="5.09275" height="5.26829" fill="#FF6969"/>
<rect x="188.298" y="25.3658" width="5.09275" height="5.26829" fill="#FF6969"/>
<rect x="188.298" y="37.2195" width="5.09275" height="5.26829" fill="#FF6969"/>
<path d="M2.73 42V12.39H7.98V30.198H8.064L16.338 21.462H22.68L13.356 31.29L23.268 42H16.842L8.064 32.844H7.98V42H2.73ZM34.9594 42.42C32.6354 42.42 30.6334 41.986 28.9534 41.118C27.2734 40.25 25.9714 39.018 25.0474 37.422C24.1514 35.826 23.7034 33.936 23.7034 31.752C23.7034 29.624 24.1374 27.762 25.0054 26.166C25.9014 24.57 27.1194 23.324 28.6594 22.428C30.2274 21.504 32.0054 21.042 33.9934 21.042C36.9054 21.042 39.2014 21.966 40.8814 23.814C42.5894 25.662 43.4434 28.182 43.4434 31.374V32.928H28.7434C29.1354 36.596 31.2354 38.43 35.0434 38.43C36.1914 38.43 37.3394 38.262 38.4874 37.926C39.6354 37.562 40.6854 37.002 41.6374 36.246L43.1074 39.774C42.1274 40.586 40.8954 41.23 39.4114 41.706C37.9274 42.182 36.4434 42.42 34.9594 42.42ZM34.2034 24.612C32.6634 24.612 31.4174 25.088 30.4654 26.04C29.5134 26.992 28.9394 28.28 28.7434 29.904H39.0754C38.9634 28.196 38.4874 26.894 37.6474 25.998C36.8354 25.074 35.6874 24.612 34.2034 24.612ZM49.121 49.56L52.901 41.16L44.375 21.462H49.961L55.715 35.826L61.595 21.462H66.887L54.539 49.56H49.121ZM76.4882 42.42C74.7522 42.42 73.1282 42.21 71.6162 41.79C70.1042 41.37 68.8442 40.768 67.8362 39.984L69.1802 36.54C70.2162 37.24 71.3782 37.786 72.6662 38.178C73.9542 38.542 75.2422 38.724 76.5302 38.724C77.8742 38.724 78.8682 38.5 79.5122 38.052C80.1842 37.576 80.5202 36.96 80.5202 36.204C80.5202 35.028 79.6522 34.272 77.9162 33.936L73.7162 33.138C70.1602 32.466 68.3822 30.618 68.3822 27.594C68.3822 26.25 68.7462 25.088 69.4742 24.108C70.2302 23.128 71.2662 22.372 72.5822 21.84C73.8982 21.308 75.4102 21.042 77.1182 21.042C78.5742 21.042 79.9742 21.252 81.3182 21.672C82.6622 22.064 83.8102 22.666 84.7622 23.478L83.3342 26.922C82.5222 26.25 81.5422 25.718 80.3942 25.326C79.2742 24.934 78.1962 24.738 77.1602 24.738C75.7882 24.738 74.7662 24.976 74.0942 25.452C73.4502 25.928 73.1282 26.558 73.1282 27.342C73.1282 28.574 73.9262 29.33 75.5222 29.61L79.7222 30.408C81.5422 30.744 82.9142 31.36 83.8382 32.256C84.7902 33.152 85.2662 34.356 85.2662 35.868C85.2662 37.912 84.4682 39.522 82.8722 40.698C81.2762 41.846 79.1482 42.42 76.4882 42.42ZM89.478 42V12.39H94.728V24.444C95.428 23.324 96.366 22.484 97.542 21.924C98.718 21.336 100.02 21.042 101.448 21.042C106.292 21.042 108.714 23.856 108.714 29.484V42H103.464V29.736C103.464 28.14 103.156 26.978 102.54 26.25C101.952 25.522 101.028 25.158 99.768 25.158C98.228 25.158 96.996 25.648 96.072 26.628C95.176 27.58 94.728 28.854 94.728 30.45V42H89.478Z" fill="black"/>
<path d="M223.138 42.42C217.706 42.42 214.99 39.732 214.99 34.356V25.41H211.042V21.462H214.99V15.33H220.24V21.462H226.456V25.41H220.24V34.062C220.24 35.406 220.534 36.414 221.122 37.086C221.71 37.758 222.662 38.094 223.978 38.094C224.37 38.094 224.776 38.052 225.196 37.968C225.616 37.856 226.05 37.744 226.498 37.632L227.296 41.496C226.792 41.776 226.148 42 225.364 42.168C224.608 42.336 223.866 42.42 223.138 42.42Z" fill="black"/>
</svg>
